<svg width="30" height="24" viewBox="0 0 30 24" fill="none" xmlns="http://www.w3.org/2000/svg">
<path d="M29.4335 0.32993C28.9218 -0.0516713 28.118 -0.106271 27.2869 0.187129H27.2856C26.4115 0.49553 2.54421 9.49796 1.5726 9.86576C1.39588 9.91976 -0.14751 10.4262 0.0114689 11.5542C0.15339 12.5712 1.39384 12.9924 1.54531 13.041L7.61312 14.868C8.01568 16.0464 9.49971 20.394 9.82791 21.3228C10.0326 21.9018 10.3663 22.6626 10.951 22.8192C11.4641 22.9932 11.9745 22.8342 12.3047 22.6062L16.0144 19.5804L22.0031 23.6874L22.1457 23.7624C22.5524 23.9208 22.942 24 23.3138 24C23.6011 24 23.8767 23.9526 24.1401 23.8578C25.0373 23.5338 25.3962 22.782 25.4338 22.6968L29.907 2.25054C30.1799 1.15853 29.8006 0.602931 29.4335 0.32993ZM12.9645 15.5988L10.9176 20.3988L8.87062 14.3988L24.5638 4.19874L12.9645 15.5988Z" fill="#152233"/>
</svg>
