<svg width="34" height="22" viewBox="0 0 34 22" fill="none" xmlns="http://www.w3.org/2000/svg">
<path d="M33.8167 19.7209C32.4282 17.0867 28.8513 13.9214 27.3746 12.544C26.9705 12.1668 26.9272 11.5144 27.295 11.0973C30.1131 7.90514 32.3671 4.23725 33.1429 2.02088C33.4852 1.0418 32.7767 0.00733075 31.7783 0.00733075H28.8783C27.9224 0.00733075 27.363 0.368988 27.0964 0.94487C24.7543 6.004 22.7452 8.19349 21.3389 9.47314C20.5515 10.1899 19.3236 9.59614 19.3236 8.50546C19.3236 6.40394 19.3236 3.68744 19.3236 1.76104C19.3236 0.826761 18.5988 0.0708652 17.7048 0.0708652L12.407 0.00733075C11.7402 0.00733075 11.3592 0.803139 11.7595 1.3611L12.6342 2.68473C12.9634 3.14332 13.1411 3.70129 13.1411 4.27391L13.1365 10.2347C13.1365 11.2717 11.9442 11.7783 11.2364 11.0517C8.84173 8.59343 6.76389 3.5734 6.0159 1.17294C5.79954 0.478137 5.18214 0.00895983 4.48205 0.00733075L1.62532 0C0.553557 0 -0.229979 1.07112 0.0613354 2.14958C2.67158 11.8076 8.02728 20.9957 17.5719 21.9919C18.5123 22.0896 19.3236 21.2913 19.3236 20.3033V17.1706C19.3236 16.2721 19.992 15.4999 20.8513 15.4771C20.8814 15.4763 20.9116 15.4763 20.9417 15.4763C23.4662 15.4763 26.2936 19.3495 27.2826 21.161C27.567 21.6823 28.0986 22 28.6735 22H32.5163C33.6375 22 34.3569 20.7464 33.8167 19.7209Z" fill="#00BABF"/>
</svg>
